<?xml version="1.0" encoding="UTF-8" standalone="no"?>
<svg
   width="157.29295pt"
   height="26.734375pt"
   viewBox="0 0 157.29295 26.734375"
   version="1.1"
   id="svg19"
   xmlns="http://www.w3.org/2000/svg"
   xmlns:svg="http://www.w3.org/2000/svg">
  <defs
     id="defs23" />
  <path
     fill-rule="evenodd"
     fill="#f57215"
     fill-opacity="1"
     d="m 16.921875,8.992188 c 1.269531,1.03125 2.082031,2.609375 2.082031,4.375 0,2.789062 -2.023437,5.101562 -4.679687,5.558594 v -2.015626 c 1.5625,-0.421874 2.710937,-1.847656 2.710937,-3.542968 0,-1.175782 -0.554687,-2.226563 -1.417968,-2.898438 0.207031,-0.304687 0.4375,-0.597656 0.6875,-0.871094 C 16.5,9.382813 16.703125,9.179688 16.921875,8.992188"
     id="path9" />
  <path
     fill-rule="nonzero"
     fill="#68bcec"
     fill-opacity="1"
     d="m 16.242188,0.30859395 c 2.535156,0.558594 4.804687,1.83593805 6.578125,3.60546905 2.417969,2.421875 3.914062,5.761719 3.914062,9.453125 0,3.691406 -1.496093,7.035156 -3.914062,9.453125 -1.773438,1.773437 -4.042969,3.050781 -6.578125,3.605469 v -1.972657 c 2.007812,-0.519531 3.800781,-1.566406 5.222656,-2.988281 2.070312,-2.070312 3.351562,-4.933594 3.351562,-8.097656 0,-3.160156 -1.28125,-6.023438 -3.351562,-8.097656 C 20.042969,3.851563 18.25,2.800782 16.242188,2.28125 Z m -5.75,1.97265605 C 8.4843745,2.800782 6.6914055,3.851563 5.2695315,5.269532 c -2.070313,2.074218 -3.355469,4.9375 -3.355469,8.097656 0,3.164062 1.285156,6.027344 3.355469,8.097656 1.421874,1.421875 3.214843,2.46875 5.2226565,2.988281 v 1.972657 C 7.9531245,25.871094 5.6874995,24.59375 3.9140625,22.820313 1.4960935,20.402344 -4.6005558e-7,17.058594 -4.6005558e-7,13.367188 -4.6005558e-7,9.675782 1.4960935,6.335938 3.9140625,3.914063 5.6874995,2.144532 7.9531245,0.86718795 10.492188,0.30859395 V 2.28125"
     id="path11" />
  <path
     fill-rule="nonzero"
     fill="#0d5f9d"
     fill-opacity="1"
     d="m 14.324219,3.910156 c 0.988281,0.09766 1.933594,0.351563 2.808594,0.726563 -0.660157,0.316406 -1.355469,0.820313 -1.96875,1.359375 C 14.589844,5.855469 13.984375,5.78125 13.367188,5.78125 c -2.09375,0 -3.9921885,0.847656 -5.3671885,2.222656 -1.371094,1.371094 -2.222656,3.269532 -2.222656,5.363282 0,2.09375 0.851562,3.992187 2.222656,5.367187 1.160156,1.160157 2.6953135,1.945313 4.4062505,2.160157 v -5.996094 c 0,-0.15625 0,-0.308594 0.0039,-0.464844 0.06641,-2.355469 0.996094,-4.5 2.480469,-6.125 1.089844,-1.195312 2.484375,-2.113281 4.0625,-2.628906 0.109375,0.07813 0.214844,0.160156 0.320313,0.242187 l 0.01563,0.01172 0.01563,0.01563 0.01172,0.0039 0.02344,0.02344 h 0.0039 l 0.01563,0.01563 0.0078,0.0039 0.01172,0.01172 0.01563,0.01172 0.01172,0.01172 0.0078,0.0039 0.0039,0.0039 0.01563,0.01172 0.01563,0.01562 0.01172,0.0078 0.01172,0.01172 0.01172,0.0078 v 0.0039 l 0.01563,0.0078 0.01172,0.01172 0.01172,0.0078 v 0.0039 l 0.01563,0.01172 0.01172,0.0078 0.02344,0.02344 h 0.0039 l 0.03516,0.03516 0.01562,0.01172 0.01172,0.0078 0.0039,0.0078 0.0078,0.0039 0.01172,0.0078 v 0.0039 l 0.01563,0.01172 0.01172,0.01172 0.0078,0.0039 0.0039,0.0078 0.01172,0.0078 v 0.0039 l 0.01563,0.01172 0.01172,0.01172 0.0078,0.0039 0.0039,0.0078 0.01172,0.01172 0.01953,0.01563 0.0078,0.0039 0.04297,0.04297 0.0078,0.0039 0.04687,0.04688 c 0.05469,0.05078 0.109375,0.101562 0.160157,0.15625 h 0.0039 l 0.03125,0.03516 0.01953,0.01563 0.0078,0.0078 0.0078,0.01172 0.0078,0.0078 0.01172,0.0078 0.04297,0.04297 0.0078,0.01172 0.01563,0.01563 0.05078,0.05469 0.01172,0.0078 0.0078,0.01172 0.02344,0.02344 0.0078,0.01172 c 1.589844,1.695313 2.5625,3.980469 2.5625,6.488282 0,2.625 -1.0625,5.003906 -2.785156,6.722656 -1.507813,1.507812 -3.519532,2.511719 -5.761719,2.734375 v 3.878906 c -0.316406,0.01953 -0.636719,0.03125 -0.957031,0.03125 -0.324219,0 -0.644532,-0.0078 -0.960938,-0.03125 v -3.878705 c -2.242052,-0.222656 -4.2537715,-1.226563 -5.7615835,-2.734375 -1.71875,-1.71875 -2.78125,-4.097656 -2.78125,-6.722656 0,-2.625 1.0625,-5 2.78125,-6.71875 C 8.1523435,5.140625 10.164063,4.136719 12.40625,3.910156 V 0.03515595 C 12.722656,0.01171895 13.042969,-4.7133655e-8 13.367188,-4.7133655e-8 13.6875,-4.7133655e-8 14.007813,0.01171895 14.324219,0.03515595 Z m 0,16.984376 c 1.710937,-0.214844 3.246094,-1 4.40625,-2.160157 1.375,-1.375 2.222656,-3.273437 2.222656,-5.367187 0,-2.09375 -0.847656,-3.992188 -2.222656,-5.363282 -0.03906,-0.04297 -0.08203,-0.08594 -0.128906,-0.128906 -0.871094,0.425782 -1.648438,1.011719 -2.296875,1.722656 -1.179688,1.289063 -1.917969,2.992188 -1.976563,4.867188 -0.0039,0.152344 -0.0039,0.300781 -0.0039,0.453125 v 5.976563"
     id="path13" />
  <path
     fill-rule="nonzero"
     fill="#0d5f9d"
     fill-opacity="1"
     d="m 37.023438,9.617188 h 2.496094 v 0.203125 c 0,0.953125 -0.269532,1.703125 -0.808594,2.253906 -0.542969,0.550781 -1.28125,0.828125 -2.210938,0.828125 -0.285156,0 -0.558594,-0.03125 -0.8125,-0.08984 -0.261718,-0.0625 -0.5,-0.148437 -0.714844,-0.265625 -0.496093,-0.273437 -0.878906,-0.648437 -1.148437,-1.128906 -0.269531,-0.480469 -0.40625,-1.027344 -0.40625,-1.640625 0,-0.503906 0.08203,-0.957031 0.242187,-1.363281 0.160157,-0.40625 0.402344,-0.765625 0.730469,-1.074219 0.269531,-0.257812 0.589844,-0.453125 0.949219,-0.585938 0.363281,-0.132812 0.761719,-0.199218 1.199219,-0.199218 0.582031,0 1.085937,0.105468 1.511719,0.316406 0.425781,0.210938 0.78125,0.527344 1.0625,0.953125 L 38.507813,8.308598 C 38.292969,7.94141 38.019532,7.664067 37.695313,7.480473 37.371094,7.296879 36.992188,7.207036 36.5625,7.207036 c -0.699218,0 -1.273437,0.238281 -1.710937,0.710937 -0.4375,0.472656 -0.65625,1.09375 -0.65625,1.859375 0,0.722656 0.222656,1.316406 0.667969,1.777344 0.445312,0.464844 1.011718,0.695312 1.699218,0.695312 0.605469,0 1.113282,-0.183594 1.515625,-0.550781 0.402344,-0.367187 0.628907,-0.847656 0.671875,-1.4375 h -1.726562 z m 6.441406,2.609375 c 0.328125,0 0.644531,-0.0625 0.941406,-0.1875 0.300782,-0.125 0.570313,-0.308594 0.808594,-0.550781 0.238281,-0.238282 0.417969,-0.503907 0.542969,-0.804688 0.125,-0.300781 0.183593,-0.621094 0.183593,-0.953125 0,-0.339844 -0.05859,-0.664063 -0.1875,-0.96875 -0.125,-0.308594 -0.304687,-0.578125 -0.539062,-0.808594 -0.238281,-0.238281 -0.503906,-0.417969 -0.804688,-0.542969 -0.296874,-0.125 -0.613281,-0.1875 -0.945312,-0.1875 -0.335938,0 -0.65625,0.0625 -0.957031,0.1875 -0.300781,0.125 -0.566407,0.304688 -0.796875,0.542969 -0.238282,0.238281 -0.417969,0.507813 -0.542969,0.8125 -0.121094,0.300781 -0.183594,0.625 -0.183594,0.964844 0,0.332031 0.05859,0.652344 0.183594,0.949219 0.121094,0.296875 0.304687,0.566406 0.542969,0.808594 0.242187,0.242187 0.511718,0.425781 0.808594,0.550781 0.296874,0.125 0.609374,0.1875 0.945312,0.1875 z m 3.230469,-2.496094 c 0,0.429687 -0.07813,0.839844 -0.238281,1.21875 -0.160157,0.386719 -0.394532,0.726563 -0.699219,1.023437 -0.304688,0.296876 -0.660157,0.527344 -1.054688,0.6875 -0.402343,0.160157 -0.8125,0.242188 -1.238281,0.242188 -0.429688,0 -0.839844,-0.08203 -1.234375,-0.242188 C 41.835938,12.5 41.484375,12.269532 41.175782,11.972656 40.867188,11.671875 40.632813,11.332032 40.472656,10.945313 40.3125,10.566406 40.230469,10.160156 40.230469,9.730469 c 0,-0.433594 0.08203,-0.84375 0.242187,-1.226563 0.160157,-0.382812 0.394532,-0.726562 0.703126,-1.027343 0.304687,-0.292969 0.65625,-0.523438 1.050781,-0.679688 0.398437,-0.160156 0.808593,-0.242187 1.238281,-0.242187 0.429688,0 0.839844,0.08203 1.242188,0.242187 0.394531,0.15625 0.746093,0.386719 1.050781,0.679688 0.304687,0.296875 0.539062,0.636719 0.699219,1.023437 0.160156,0.382813 0.238281,0.792969 0.238281,1.230469 z M 43.75,5.410156 c 0,-0.125 0.04687,-0.230468 0.140625,-0.324218 0.08984,-0.09375 0.199219,-0.140625 0.324219,-0.140625 0.128906,0 0.234375,0.04687 0.328125,0.140625 0.09375,0.08984 0.140625,0.199218 0.140625,0.324218 0,0.136719 -0.04687,0.25 -0.132812,0.335938 -0.08984,0.08984 -0.203126,0.132812 -0.335938,0.132812 -0.132812,0 -0.242188,-0.04297 -0.332031,-0.132812 C 43.792973,5.660154 43.75,5.546875 43.75,5.410156 Z m -1.503906,0 c 0,-0.121093 0.04687,-0.230468 0.140625,-0.320312 0.09766,-0.09766 0.207031,-0.144531 0.332031,-0.144531 0.128906,0 0.238282,0.04687 0.324219,0.140625 0.08984,0.08984 0.132813,0.199218 0.132813,0.324218 0,0.136719 -0.04297,0.25 -0.125,0.339844 -0.08594,0.08594 -0.195313,0.128906 -0.332032,0.128906 -0.136718,0 -0.25,-0.04297 -0.339844,-0.132812 -0.08984,-0.08594 -0.132812,-0.199219 -0.132812,-0.335938 z m 6.328125,7.332032 V 7.375 H 47.003906 V 6.691406 h 3.855469 V 7.375 h -1.558593 v 5.367188 z m 4.210937,0 V 7.375 H 51.21875 V 6.691406 h 3.855469 V 7.375 h -1.558594 v 5.367188 z m 3.167969,0 V 6.691406 h 0.71875 v 6.050782 z m 2.105469,0 V 6.453125 l 4.425781,4.835938 V 6.691406 h 0.683594 v 6.285157 l -4.425781,-4.78125 v 4.546875 z m 9.804688,-3.125 h 2.496093 v 0.203125 c 0,0.953125 -0.265625,1.703125 -0.808593,2.253906 -0.539063,0.550781 -1.277344,0.828125 -2.210938,0.828125 -0.285156,0 -0.554688,-0.03125 -0.8125,-0.08984 -0.257812,-0.0625 -0.496094,-0.148437 -0.710938,-0.265625 -0.496093,-0.273437 -0.878906,-0.648437 -1.152343,-1.128906 -0.269531,-0.480469 -0.402344,-1.027344 -0.402344,-1.640625 0,-0.503906 0.07813,-0.957031 0.238281,-1.363281 0.164063,-0.40625 0.40625,-0.765625 0.730469,-1.074219 0.273437,-0.257812 0.589844,-0.453125 0.953125,-0.585938 0.359375,-0.132812 0.757812,-0.199218 1.199219,-0.199218 0.578125,0 1.082031,0.105468 1.511719,0.316406 0.425781,0.210938 0.78125,0.527344 1.0625,0.953125 L 69.351563,8.308598 C 69.136719,7.94141 68.863282,7.664067 68.539063,7.480473 68.214844,7.296879 67.835938,7.207036 67.40625,7.207036 c -0.703125,0 -1.273437,0.238281 -1.710937,0.710937 -0.4375,0.472656 -0.65625,1.09375 -0.65625,1.859375 0,0.722656 0.222656,1.316406 0.667969,1.777344 0.445312,0.464844 1.011718,0.695312 1.699218,0.695312 0.605469,0 1.109375,-0.183594 1.515625,-0.550781 0.402344,-0.367187 0.625,-0.847656 0.667969,-1.4375 h -1.726562 z m 3.488281,3.125 V 6.691406 h 3.191406 v 0.660157 h -2.46875 v 1.734375 h 2.46875 v 0.667968 h -2.46875 v 2.316407 h 2.46875 v 0.671875 z m 4.335937,0 V 6.453125 l 4.425782,4.835938 V 6.691406 h 0.683593 v 6.285157 l -4.425781,-4.78125 v 4.546875 z M 89.648438,8.136719 C 89.359375,7.824219 89.050782,7.589844 88.722656,7.441406 88.394532,7.289063 88.03125,7.214844 87.636719,7.214844 c -0.320313,0 -0.632813,0.06641 -0.9375,0.195312 -0.304687,0.128907 -0.570313,0.308594 -0.792969,0.542969 -0.230468,0.238281 -0.402344,0.507813 -0.519531,0.800781 -0.113281,0.296876 -0.171875,0.625 -0.171875,0.984376 0,0.277343 0.03125,0.539062 0.101562,0.777343 0.07031,0.234375 0.171876,0.453125 0.308594,0.652344 0.242188,0.34375 0.542969,0.609375 0.894532,0.792969 0.355468,0.1875 0.738281,0.28125 1.148437,0.28125 0.386719,0 0.742187,-0.08203 1.074219,-0.242188 0.332031,-0.15625 0.632812,-0.394531 0.90625,-0.710937 v 0.953125 c -0.300782,0.214844 -0.625,0.382812 -0.96875,0.492187 -0.347656,0.113281 -0.703125,0.167969 -1.074219,0.167969 -0.320313,0 -0.632813,-0.04687 -0.933594,-0.144531 -0.304687,-0.09375 -0.585937,-0.234375 -0.851562,-0.414063 -0.441407,-0.304687 -0.777344,-0.679687 -1.011719,-1.128906 -0.230469,-0.445312 -0.347656,-0.933594 -0.347656,-1.46875 0,-0.464844 0.07813,-0.890625 0.234375,-1.269531 0.152343,-0.382813 0.390625,-0.730469 0.710937,-1.042969 0.308594,-0.296875 0.652344,-0.519531 1.027344,-0.664062 0.375,-0.148438 0.78125,-0.222657 1.226562,-0.222657 0.351563,0 0.6875,0.05469 1.015626,0.160157 0.328124,0.105468 0.652343,0.269531 0.972656,0.492187 z m 3.062496,-0.09375 -0.96093,2.226563 h 1.92578 z m 0,-1.589844 2.75391,6.289063 h -0.78125 l -0.78516,-1.855469 h -2.36328 l -0.78515,1.855469 h -0.777348 z m 6.40625,6.523438 -1.8789,-4.34375 -0.76172,4.109375 h -0.70313 l 1.22657,-6.289063 2.11718,5.003907 2.117186,-5.003907 1.22656,6.289063 h -0.70312 l -0.76953,-4.109375 z m 4.898436,-2.953125 v 2.71875 H 103.3125 V 6.691406 h 1.26953 c 0.44531,0 0.77344,0.02344 0.98047,0.07031 0.21093,0.04687 0.39062,0.125 0.54687,0.230469 0.19141,0.136718 0.34375,0.328125 0.45313,0.566406 0.10547,0.238281 0.16015,0.503906 0.16015,0.796875 0,0.292969 -0.0547,0.558594 -0.16015,0.796875 -0.10938,0.238281 -0.26172,0.429688 -0.45313,0.566406 -0.15625,0.109375 -0.33594,0.1875 -0.54297,0.234375 -0.21093,0.04687 -0.53906,0.07031 -0.98437,0.07031 z m 0,-0.652344 h 0.36328 c 0.61719,0 1.03516,-0.07031 1.2461,-0.214844 0.21484,-0.144531 0.32031,-0.398437 0.32031,-0.757812 0,-0.386719 -0.10938,-0.65625 -0.32813,-0.8125 -0.21875,-0.15625 -0.63281,-0.234375 -1.23828,-0.234375 h -0.36328 z m 3.4961,-2.679688 h 0.72656 v 3.765626 c 0,0.609374 0.1289,1.058593 0.39062,1.347656 0.26172,0.285156 0.66797,0.429687 1.22657,0.429687 0.55859,0 0.96484,-0.144531 1.22656,-0.429687 0.25781,-0.285156 0.39062,-0.738282 0.39062,-1.347656 V 6.691406 h 0.72657 v 3.765626 c 0,0.816406 -0.19532,1.429687 -0.58204,1.835937 -0.39453,0.40625 -0.98046,0.609375 -1.76171,0.609375 -0.78516,0 -1.3711,-0.203125 -1.76172,-0.609375 -0.38672,-0.40625 -0.58203,-1.019531 -0.58203,-1.835937 z m 8.24609,2.691407 c 0.39453,0.167969 0.69141,0.390625 0.89062,0.667969 0.19922,0.277343 0.30079,0.609374 0.30079,0.988281 0,0.554687 -0.17969,1.003906 -0.53125,1.34375 -0.35157,0.339843 -0.82422,0.511719 -1.41016,0.511719 -0.47266,0 -0.875,-0.121094 -1.19531,-0.367188 -0.32422,-0.242188 -0.53907,-0.589844 -0.65625,-1.039062 l 0.65625,-0.320313 c 0.0859,0.367187 0.23047,0.644531 0.4375,0.832031 0.19922,0.1875 0.45312,0.285156 0.75781,0.285156 0.36328,0 0.65625,-0.105468 0.87891,-0.3125 0.22265,-0.210937 0.33593,-0.480468 0.33593,-0.8125 0,-0.269531 -0.0781,-0.503906 -0.23437,-0.707031 -0.15625,-0.199219 -0.39063,-0.367187 -0.70313,-0.503906 L 114.54687,9.632813 C 114.14453,9.464844 113.84375,9.25 113.64843,8.984375 113.45312,8.722656 113.35156,8.40625 113.35156,8.035156 c 0,-0.429687 0.16016,-0.789062 0.48047,-1.066406 0.32031,-0.28125 0.72656,-0.421875 1.22265,-0.421875 0.36329,0 0.67969,0.07813 0.94532,0.230469 0.26562,0.15625 0.47265,0.382812 0.62109,0.683594 l -0.59375,0.378906 c -0.13281,-0.230469 -0.28906,-0.40625 -0.45312,-0.519531 -0.16797,-0.113281 -0.35938,-0.171875 -0.57032,-0.171875 -0.27343,0 -0.49609,0.08203 -0.66406,0.246094 -0.17187,0.164062 -0.25781,0.375 -0.25781,0.632812 0,0.214844 0.0664,0.402344 0.19922,0.558594 0.1289,0.15625 0.33593,0.292968 0.61328,0.417968 z m 4.65234,3.359375 V 6.691406 h 0.71875 v 6.050782 z m 2.10938,0 V 6.453125 l 4.42578,4.835938 V 6.691406 h 0.68359 v 6.285157 l -4.42578,-4.78125 v 4.546875 z m 8.68359,-3.359375 c 0.39453,0.167969 0.69141,0.390625 0.89063,0.667969 0.19921,0.277343 0.30078,0.609374 0.30078,0.988281 0,0.554687 -0.17969,1.003906 -0.53125,1.34375 -0.35547,0.339843 -0.82422,0.511719 -1.41016,0.511719 -0.47656,0 -0.875,-0.121094 -1.19922,-0.367188 -0.32031,-0.242188 -0.53906,-0.589844 -0.65234,-1.039062 l 0.65234,-0.320313 c 0.0898,0.367187 0.23438,0.644531 0.4375,0.832031 0.20313,0.1875 0.45703,0.285156 0.76172,0.285156 0.36328,0 0.65234,-0.105468 0.87891,-0.3125 0.22265,-0.210937 0.33203,-0.480468 0.33203,-0.8125 0,-0.269531 -0.0742,-0.503906 -0.23438,-0.707031 -0.15234,-0.199219 -0.38672,-0.367187 -0.70312,-0.503906 L 129.99218,9.632813 C 129.58984,9.464844 129.28906,9.25 129.09375,8.984375 128.89453,8.722656 128.79687,8.40625 128.79687,8.035156 c 0,-0.429687 0.16016,-0.789062 0.48047,-1.066406 0.31641,-0.28125 0.72656,-0.421875 1.22266,-0.421875 0.36328,0 0.67968,0.07813 0.94531,0.230469 0.26562,0.15625 0.47265,0.382812 0.62109,0.683594 l -0.59375,0.378906 c -0.13672,-0.230469 -0.28906,-0.40625 -0.45703,-0.519531 -0.16797,-0.113281 -0.35547,-0.171875 -0.56641,-0.171875 -0.27343,0 -0.49609,0.08203 -0.66796,0.246094 -0.16797,0.164062 -0.25782,0.375 -0.25782,0.632812 0,0.214844 0.0664,0.402344 0.19922,0.558594 0.13281,0.15625 0.33985,0.292968 0.61719,0.417968 z m 3.12891,3.359375 V 7.375 h -1.56641 V 6.691406 h 3.85547 V 7.375 h -1.55859 v 5.367188 z m 3.16797,0 V 6.691406 h 0.71875 v 6.050782 z m 3.16406,0 V 7.375 h -1.57031 V 6.691406 h 3.85546 V 7.375 h -1.55859 v 5.367188 z m 3.1289,-6.050782 h 0.73047 v 3.765626 c 0,0.609374 0.12891,1.058593 0.39063,1.347656 0.25781,0.285156 0.66797,0.429687 1.22265,0.429687 0.5586,0 0.96875,-0.144531 1.22657,-0.429687 0.25781,-0.285156 0.39062,-0.738282 0.39062,-1.347656 V 6.691406 h 0.72656 v 3.765626 c 0,0.816406 -0.1914,1.429687 -0.58203,1.835937 -0.39062,0.40625 -0.97656,0.609375 -1.76172,0.609375 -0.78125,0 -1.36718,-0.203125 -1.75781,-0.609375 -0.39062,-0.40625 -0.58594,-1.019531 -0.58594,-1.835937 z m 7.10547,6.050782 V 7.375 h -1.57031 V 6.691406 h 3.85547 V 7.375 H 151.625 v 5.367188 z m 3.15235,0 V 6.691406 h 3.1914 v 0.660157 h -2.46875 v 1.734375 h 2.46875 v 0.667968 h -2.46875 v 2.316407 h 2.46875 v 0.671875 h -3.1914"
     id="path15" />
  <path
     fill-rule="nonzero"
     fill="#4f4b4c"
     fill-opacity="1"
     d="m 33.765625,19.566406 v -3.511718 h 2.007813 v 0.589844 h -1.386719 v 0.757812 h 1.386719 v 0.59375 h -1.386719 v 1.679688 h -0.621094 z m 4.933594,-0.398437 c 0.08594,0 0.167969,-0.0078 0.25,-0.02344 0.08203,-0.01953 0.160156,-0.04297 0.238281,-0.07422 0.07813,-0.03125 0.152344,-0.07031 0.21875,-0.121094 0.07031,-0.04297 0.136719,-0.101563 0.199219,-0.164063 0.0625,-0.0625 0.117187,-0.125 0.164063,-0.195312 0.04687,-0.07031 0.08594,-0.144531 0.117187,-0.222656 0.03125,-0.07422 0.05859,-0.15625 0.07422,-0.238282 0.01563,-0.08203 0.02344,-0.167968 0.02344,-0.257812 0,-0.08594 -0.0078,-0.175781 -0.02344,-0.257812 -0.01563,-0.08203 -0.04297,-0.164063 -0.07422,-0.242188 -0.03125,-0.07813 -0.07031,-0.152344 -0.117187,-0.226562 -0.04688,-0.07031 -0.101563,-0.132813 -0.164063,-0.195313 -0.0625,-0.0625 -0.128906,-0.117187 -0.195313,-0.160156 -0.07031,-0.05078 -0.144531,-0.08984 -0.21875,-0.121094 -0.07812,-0.03125 -0.15625,-0.05469 -0.238281,-0.07031 -0.08203,-0.01562 -0.167969,-0.02344 -0.253906,-0.02344 -0.08984,0 -0.175781,0.0078 -0.257813,0.02344 -0.08203,0.01563 -0.164062,0.03906 -0.238281,0.07031 -0.07813,0.03125 -0.152343,0.07422 -0.21875,0.117187 -0.07031,0.04688 -0.132812,0.101563 -0.195312,0.164063 -0.05859,0.0625 -0.113281,0.128906 -0.160157,0.199219 -0.04687,0.07031 -0.08984,0.144531 -0.121093,0.222656 -0.03125,0.07813 -0.05469,0.160156 -0.07031,0.242188 -0.01563,0.08594 -0.02344,0.171874 -0.02344,0.257812 0,0.08984 0.0078,0.175781 0.02344,0.257812 0.01563,0.08203 0.03906,0.160157 0.07031,0.238282 0.03125,0.07422 0.07031,0.148437 0.117187,0.21875 0.04687,0.07031 0.101563,0.136718 0.164063,0.199218 0.0625,0.0625 0.132812,0.121094 0.199219,0.167969 0.07031,0.04687 0.144531,0.08594 0.21875,0.117188 0.07812,0.03125 0.15625,0.05469 0.238281,0.07422 0.08203,0.01562 0.164062,0.02344 0.253906,0.02344 z M 40.625,17.871094 c 0,0.128906 -0.01172,0.253906 -0.03516,0.375 -0.02344,0.121094 -0.0625,0.242188 -0.109375,0.355469 -0.04687,0.117187 -0.105469,0.222656 -0.175781,0.324219 -0.07031,0.101562 -0.148438,0.195312 -0.242188,0.285156 -0.08984,0.08984 -0.1875,0.167968 -0.292968,0.234375 -0.105469,0.07031 -0.21875,0.128906 -0.335938,0.175781 -0.117188,0.04687 -0.238281,0.08594 -0.359375,0.109375 -0.125,0.02344 -0.25,0.03516 -0.375,0.03516 -0.128906,0 -0.253906,-0.01172 -0.375,-0.03516 -0.121094,-0.02344 -0.242187,-0.0625 -0.359375,-0.109375 -0.117188,-0.04687 -0.230469,-0.105469 -0.332031,-0.175781 -0.105465,-0.06641 -0.203121,-0.144531 -0.296871,-0.234375 -0.08984,-0.08984 -0.171875,-0.183594 -0.242188,-0.285156 -0.07031,-0.101563 -0.128906,-0.210938 -0.175781,-0.324219 -0.05078,-0.117188 -0.08594,-0.234375 -0.109375,-0.355469 -0.02344,-0.121094 -0.03516,-0.246094 -0.03516,-0.375 0,-0.257812 0.04687,-0.5 0.144531,-0.730469 0.04687,-0.113281 0.109375,-0.222656 0.175781,-0.328125 0.07031,-0.09766 0.152344,-0.195312 0.242188,-0.285156 0.08984,-0.08594 0.1875,-0.164062 0.292968,-0.230469 0.105469,-0.07031 0.214844,-0.125 0.335938,-0.175781 0.117188,-0.04687 0.238281,-0.08203 0.359375,-0.105469 0.121094,-0.02344 0.246094,-0.03516 0.375,-0.03516 0.125,0 0.253906,0.01172 0.375,0.03516 0.121094,0.02344 0.242187,0.05859 0.363281,0.105469 0.117188,0.04687 0.230469,0.105469 0.335938,0.175781 0.105468,0.06641 0.199218,0.144531 0.289062,0.230469 0.09375,0.08984 0.171875,0.1875 0.242188,0.289062 0.07031,0.101563 0.128906,0.207032 0.175781,0.324219 0.04687,0.117188 0.08594,0.234375 0.109375,0.355469 0.02344,0.121094 0.03516,0.246094 0.03516,0.375 z m 1.199219,1.695312 v -3.511718 h 0.90625 c 0.117187,0 0.21875,0.0039 0.304687,0.01172 0.08594,0.0039 0.160157,0.01563 0.222657,0.03125 0.05859,0.01563 0.117187,0.03516 0.167969,0.05859 0.05469,0.02734 0.105468,0.05469 0.152343,0.08984 0.05859,0.04687 0.109375,0.101562 0.15625,0.164062 0.04297,0.05859 0.07813,0.125 0.109375,0.199219 0.03125,0.07422 0.05469,0.152344 0.07031,0.230469 0.01563,0.08203 0.02344,0.164062 0.02344,0.25 0,0.152344 -0.01953,0.289062 -0.06641,0.40625 -0.04297,0.125 -0.109375,0.226562 -0.199219,0.308594 -0.08984,0.08594 -0.203125,0.148437 -0.332031,0.1875 -0.08203,0.02734 -0.179688,0.04687 -0.277344,0.05469 l 1.300782,1.628907 H 43.570313 L 42.433594,18.1875 v 1.488282 h -0.609375 z m 0.609375,-2.949218 v 0.917968 h 0.203125 c 0.148437,0 0.273437,-0.0078 0.375,-0.02734 0.08594,-0.01563 0.152344,-0.04297 0.191406,-0.07031 0.03906,-0.03125 0.06641,-0.07031 0.08594,-0.121094 0.02344,-0.05859 0.03125,-0.132812 0.03125,-0.21875 0,-0.09766 -0.01172,-0.179687 -0.03516,-0.242187 -0.01953,-0.05859 -0.04687,-0.101563 -0.08594,-0.132813 -0.09375,-0.07031 -0.28125,-0.105468 -0.5625,-0.105468 z m 5.558594,2.460937 h 0.152344 c 0.207031,0 0.378906,-0.0039 0.523437,-0.01563 0.136719,-0.0078 0.246094,-0.01953 0.320313,-0.03906 0.07422,-0.01563 0.140624,-0.03516 0.199218,-0.06641 0.05859,-0.02344 0.109375,-0.05859 0.15625,-0.09766 0.0625,-0.05078 0.117188,-0.109375 0.164063,-0.175781 0.05078,-0.07031 0.08984,-0.144531 0.125,-0.226562 0.03125,-0.08594 0.05859,-0.179688 0.07422,-0.277344 0.01562,-0.09766 0.02734,-0.203125 0.02734,-0.316406 0,-0.113282 -0.01172,-0.21875 -0.02734,-0.316407 -0.01563,-0.09766 -0.04297,-0.1875 -0.07422,-0.269531 -0.03125,-0.08203 -0.07422,-0.15625 -0.121094,-0.226562 -0.04687,-0.06641 -0.105469,-0.125 -0.167969,-0.179688 -0.04687,-0.03906 -0.09766,-0.07031 -0.15625,-0.09766 -0.0625,-0.03125 -0.128906,-0.05469 -0.207031,-0.07031 -0.07422,-0.01953 -0.183594,-0.03125 -0.320313,-0.03906 -0.140624,-0.01172 -0.3125,-0.01563 -0.515624,-0.01563 h -0.152344 z m -0.625,0.488281 v -3.511718 h 0.761718 c 0.242188,0 0.453126,0.0078 0.625,0.01953 0.175782,0.01172 0.316407,0.03125 0.421876,0.05859 0.105468,0.02734 0.207031,0.0625 0.300781,0.105469 0.09375,0.04297 0.179687,0.09766 0.257812,0.160156 0.105469,0.07813 0.199219,0.171875 0.277344,0.277344 0.08203,0.101562 0.148437,0.214843 0.203125,0.339843 0.05078,0.125 0.09375,0.257813 0.117188,0.402344 0.02734,0.140625 0.04297,0.292969 0.04297,0.449219 0,0.15625 -0.01563,0.308594 -0.04297,0.449218 -0.02344,0.140631 -0.06641,0.273443 -0.117188,0.398443 -0.05469,0.125 -0.121094,0.238281 -0.199219,0.34375 -0.08203,0.101562 -0.175781,0.195312 -0.28125,0.277344 -0.07813,0.05859 -0.164062,0.113281 -0.257812,0.15625 -0.08984,0.04297 -0.1875,0.07813 -0.285157,0.105468 -0.105468,0.02734 -0.230468,0.04688 -0.386718,0.05859 -0.148438,0.01172 -0.324219,0.01953 -0.527344,0.01953 h -0.910156 z m 4.867187,0 v -1.527343 l -1.238281,-1.984375 h 0.722656 l 0.832032,1.375 0.824218,-1.375 h 0.71875 l -1.238281,1.984375 v 1.636719 h -0.621094 z m 2.730469,0 v -3.699218 l 2.488281,2.539062 v -2.351562 h 0.601563 v 3.777344 L 55.566406,17.34375 v 2.332032 h -0.601562 z m 5.621094,-2.339843 -0.375,0.859375 h 0.753906 z m 1.714844,2.449219 H 61.625 l -0.445312,-1.03125 h -1.183594 l -0.441406,1.03125 h -0.675782 l 1.707032,-3.871094 z m 1.507812,-1.910157 -0.378906,1.910157 H 62.8125 l 0.78125,-3.871094 1.230469,2.691406 1.226563,-2.691406 0.785156,3.871094 H 66.21875 l -0.382812,-1.910157 -1.011719,2.0625 z M 67.875,19.566406 v -3.511718 h 0.621094 v 3.621094 H 67.875 Z m 4.769532,-2.515624 c -0.07813,-0.08203 -0.15625,-0.15625 -0.238282,-0.21875 -0.08203,-0.05859 -0.164062,-0.109376 -0.246094,-0.148438 -0.08594,-0.03906 -0.175781,-0.06641 -0.269531,-0.08594 -0.09375,-0.01953 -0.191406,-0.03125 -0.296875,-0.03125 -0.167968,0 -0.328125,0.03516 -0.484375,0.101563 -0.08203,0.03516 -0.15625,0.07422 -0.222656,0.121094 -0.06641,0.04687 -0.132813,0.101562 -0.1875,0.160156 -0.0625,0.0625 -0.113281,0.128906 -0.160156,0.199219 -0.04297,0.06641 -0.07813,0.140625 -0.109375,0.214844 -0.03125,0.07812 -0.05078,0.160156 -0.06641,0.242187 -0.01563,0.08594 -0.02344,0.175781 -0.02344,0.273437 0,0.07422 0.0039,0.144532 0.01172,0.214844 0.0078,0.06641 0.02344,0.128906 0.04297,0.191406 0.01562,0.05859 0.03906,0.117188 0.06641,0.171876 0.02344,0.05859 0.05469,0.113281 0.08984,0.164062 0.0625,0.08594 0.136718,0.167969 0.210937,0.238281 0.07813,0.06641 0.164063,0.125 0.253906,0.171875 0.08984,0.05078 0.1875,0.08594 0.285157,0.109375 0.09766,0.02344 0.203124,0.03516 0.308593,0.03516 0.101563,0 0.199219,-0.0078 0.292969,-0.03125 0.08984,-0.01953 0.179688,-0.05078 0.265625,-0.08984 0.08594,-0.04297 0.167969,-0.09375 0.246094,-0.15625 0.07813,-0.0625 0.15625,-0.136719 0.226562,-0.21875 l 0.191407,-0.226563 v 0.886714 l -0.04688,0.03125 c -0.08594,0.06641 -0.179687,0.121094 -0.273437,0.171875 -0.09766,0.05078 -0.199219,0.08984 -0.300781,0.125 -0.101563,0.03125 -0.203125,0.05469 -0.3125,0.07031 -0.105469,0.01953 -0.214844,0.02734 -0.324219,0.02734 -0.09375,0 -0.1875,-0.0078 -0.28125,-0.02344 -0.08984,-0.01172 -0.183594,-0.03516 -0.273437,-0.0625 -0.09375,-0.02734 -0.179688,-0.0625 -0.261719,-0.105469 -0.08594,-0.03906 -0.167969,-0.08984 -0.246094,-0.140625 -0.132813,-0.08984 -0.246094,-0.195312 -0.347656,-0.304688 -0.101563,-0.113281 -0.1875,-0.238281 -0.257813,-0.371093 -0.06641,-0.132813 -0.121094,-0.273438 -0.15625,-0.417969 -0.03516,-0.144531 -0.05078,-0.296875 -0.05078,-0.457031 0,-0.136719 0.01172,-0.269531 0.03516,-0.394531 0.02344,-0.125 0.05859,-0.246094 0.105469,-0.359376 0.04297,-0.117187 0.105469,-0.222656 0.175781,-0.328124 0.07031,-0.105469 0.152344,-0.203126 0.25,-0.296876 0.08984,-0.08594 0.1875,-0.164062 0.289063,-0.230468 0.101562,-0.06641 0.210937,-0.121094 0.320312,-0.164063 0.113282,-0.04687 0.230469,-0.07813 0.351563,-0.101562 0.121093,-0.01953 0.25,-0.03125 0.378906,-0.03125 0.101563,0 0.207031,0.0078 0.308594,0.02344 0.101562,0.01563 0.199219,0.03906 0.296875,0.07031 0.09766,0.03125 0.195312,0.07031 0.289062,0.121093 0.09766,0.04688 0.191406,0.105469 0.285156,0.167969 l 0.04688,0.03516 V 17.2539 Z m 2.804687,0.527343 c 0.117187,0.05078 0.222656,0.109375 0.3125,0.179688 0.09375,0.06641 0.171875,0.144531 0.234375,0.234375 0.0625,0.08594 0.109375,0.183594 0.140625,0.285156 0.03125,0.105469 0.04687,0.214844 0.04687,0.332031 0,0.167969 -0.02734,0.324219 -0.08203,0.460938 -0.05469,0.140625 -0.136719,0.265625 -0.25,0.371093 -0.109375,0.109376 -0.238281,0.1875 -0.386719,0.242188 -0.140625,0.05078 -0.304688,0.07813 -0.480469,0.07813 -0.140625,0 -0.277343,-0.01953 -0.398437,-0.05859 -0.125,-0.03516 -0.238282,-0.09375 -0.339844,-0.167969 -0.101562,-0.07812 -0.183594,-0.171874 -0.253906,-0.28125 -0.06641,-0.105468 -0.117188,-0.230468 -0.152344,-0.363281 l -0.02344,-0.08594 0.570313,-0.28125 0.03125,0.132812 c 0.02344,0.09375 0.05078,0.175782 0.08984,0.246094 0.03125,0.06641 0.07422,0.125 0.125,0.167969 0.04297,0.04297 0.09766,0.07813 0.152343,0.09766 0.05859,0.02344 0.128907,0.03125 0.199219,0.03125 0.08984,0 0.171875,-0.01172 0.242188,-0.03516 0.06641,-0.02344 0.128906,-0.0625 0.179687,-0.109375 0.05078,-0.04687 0.08984,-0.101563 0.113282,-0.164063 0.02734,-0.0625 0.03906,-0.132812 0.03906,-0.214843 0,-0.0625 -0.0078,-0.125 -0.02734,-0.175782 -0.01563,-0.05469 -0.04687,-0.105468 -0.08203,-0.152344 -0.03515,-0.04688 -0.08593,-0.09376 -0.140618,-0.132818 -0.05859,-0.04297 -0.128906,-0.08203 -0.210938,-0.117188 l -0.414062,-0.179687 c -0.121094,-0.04687 -0.226562,-0.109375 -0.316406,-0.171875 -0.09375,-0.06641 -0.171875,-0.144531 -0.234375,-0.226562 -0.0625,-0.08203 -0.109375,-0.175782 -0.140625,-0.277344 -0.03125,-0.101563 -0.04687,-0.207032 -0.04687,-0.320313 0,-0.136719 0.02734,-0.261719 0.07813,-0.375 0.05078,-0.117187 0.128906,-0.21875 0.230468,-0.308593 0.09766,-0.08594 0.214844,-0.152344 0.339844,-0.199219 0.128906,-0.04297 0.265625,-0.0625 0.417969,-0.0625 0.109375,0 0.214844,0.01172 0.3125,0.03516 0.09766,0.02344 0.191406,0.05859 0.273437,0.109375 0.08203,0.04687 0.160157,0.109375 0.222657,0.179688 0.06641,0.07031 0.125,0.15625 0.167969,0.25 l 0.04297,0.08594 -0.511718,0.328125 -0.05469,-0.09766 c -0.03516,-0.05859 -0.07031,-0.113282 -0.109375,-0.15625 -0.03516,-0.03906 -0.07422,-0.07422 -0.113281,-0.101563 -0.03906,-0.02734 -0.08203,-0.04687 -0.121094,-0.05859 -0.04297,-0.01563 -0.08984,-0.01953 -0.140625,-0.01953 -0.0625,0 -0.117187,0.0078 -0.167969,0.02734 -0.04687,0.01563 -0.09375,0.04297 -0.128906,0.08203 -0.03906,0.03516 -0.06641,0.07422 -0.08594,0.121094 -0.01562,0.04297 -0.02734,0.09766 -0.02734,0.15625 0,0.09375 0.03125,0.175781 0.08594,0.242187 0.03125,0.03516 0.07031,0.07031 0.121094,0.105469 0.05078,0.03516 0.113281,0.06641 0.1875,0.09766 z m 5.824219,1.589844 c 0.08594,0 0.171875,-0.0078 0.253906,-0.02344 0.07813,-0.01953 0.160156,-0.04297 0.234375,-0.07422 0.07813,-0.03125 0.152344,-0.07031 0.222656,-0.121094 0.06641,-0.04297 0.132813,-0.101563 0.199219,-0.164063 0.05859,-0.0625 0.113281,-0.125 0.160156,-0.195312 0.04687,-0.07031 0.08984,-0.144531 0.121094,-0.222656 0.03125,-0.07422 0.05469,-0.15625 0.07031,-0.238282 0.01563,-0.08203 0.02344,-0.167968 0.02344,-0.257812 0,-0.08594 -0.0078,-0.175781 -0.02344,-0.257812 -0.01562,-0.08203 -0.04297,-0.164063 -0.07422,-0.242188 -0.03125,-0.07813 -0.07031,-0.152344 -0.117188,-0.226562 -0.04687,-0.07031 -0.101562,-0.132813 -0.160156,-0.195313 -0.0625,-0.0625 -0.128906,-0.117187 -0.199219,-0.160156 -0.07031,-0.05078 -0.144531,-0.08984 -0.21875,-0.121094 -0.07422,-0.03125 -0.15625,-0.05469 -0.238281,-0.07031 -0.08203,-0.01562 -0.167969,-0.02344 -0.253906,-0.02344 -0.08594,0 -0.171875,0.0078 -0.253906,0.02344 -0.08203,0.01563 -0.164063,0.03906 -0.242188,0.07031 -0.07813,0.03125 -0.148438,0.07422 -0.21875,0.117187 -0.06641,0.04688 -0.132812,0.101563 -0.191406,0.164063 -0.0625,0.0625 -0.117188,0.128906 -0.164063,0.199219 -0.04687,0.07031 -0.08594,0.144531 -0.117187,0.222656 -0.03125,0.07813 -0.05859,0.160156 -0.07422,0.246094 -0.01563,0.08203 -0.02344,0.167968 -0.02344,0.253906 0,0.08984 0.0078,0.175781 0.02344,0.257812 0.01563,0.08203 0.03906,0.160157 0.07031,0.238282 0.03125,0.07422 0.07422,0.148437 0.121093,0.21875 0.04687,0.07031 0.101563,0.136718 0.164063,0.199218 0.0625,0.0625 0.128906,0.121094 0.199218,0.167969 0.07031,0.04687 0.144532,0.08594 0.21875,0.117188 0.07422,0.03125 0.15625,0.05469 0.238282,0.07422 0.07813,0.01562 0.164062,0.02344 0.25,0.02344 z m 1.925781,-1.296875 c 0,0.128906 -0.01172,0.253906 -0.03516,0.375 -0.02344,0.121094 -0.05859,0.242188 -0.109375,0.355469 -0.04687,0.117187 -0.105469,0.222656 -0.171875,0.324219 -0.07031,0.101562 -0.152344,0.195312 -0.242188,0.285156 -0.09375,0.08984 -0.191406,0.167968 -0.296875,0.234375 -0.105468,0.07031 -0.214844,0.128906 -0.332031,0.175781 -0.121094,0.04687 -0.242187,0.08594 -0.363281,0.109375 -0.121094,0.02344 -0.246094,0.03516 -0.375,0.03516 -0.125,0 -0.25,-0.01172 -0.375,-0.03516 -0.121094,-0.02344 -0.242188,-0.0625 -0.359375,-0.109375 -0.117188,-0.04687 -0.226563,-0.105469 -0.332031,-0.175781 -0.105469,-0.06641 -0.203126,-0.144531 -0.292969,-0.234375 -0.09375,-0.08984 -0.175777,-0.183594 -0.242184,-0.285156 -0.07031,-0.101563 -0.132812,-0.210938 -0.179687,-0.324219 -0.04687,-0.117188 -0.08594,-0.234375 -0.109375,-0.355469 -0.02344,-0.121094 -0.03516,-0.246094 -0.03516,-0.375 0,-0.257812 0.05078,-0.5 0.144532,-0.730469 0.05078,-0.113281 0.109375,-0.222656 0.179687,-0.328125 0.07031,-0.09766 0.148438,-0.195312 0.242188,-0.285156 0.08984,-0.08594 0.1875,-0.164062 0.292969,-0.230469 0.101562,-0.07031 0.214843,-0.128906 0.332031,-0.175781 0.117187,-0.04687 0.238281,-0.08203 0.359375,-0.105469 0.125,-0.02344 0.25,-0.03516 0.375,-0.03516 0.128906,0 0.253906,0.01172 0.375,0.03516 0.125,0.02344 0.246094,0.05859 0.363281,0.105469 0.117187,0.04687 0.230469,0.105469 0.335937,0.175781 0.105469,0.06641 0.203126,0.144531 0.292969,0.230469 0.08984,0.08984 0.171875,0.1875 0.242188,0.289062 0.06641,0.101563 0.125,0.207032 0.171875,0.324219 0.05078,0.113281 0.08594,0.234375 0.109375,0.355469 0.02344,0.121094 0.03516,0.246094 0.03516,0.375 z m 1.199219,1.695312 v -3.511718 h 2.011718 v 0.589844 h -1.390624 v 0.757812 h 1.390624 v 0.59375 h -1.390624 v 1.679688 h -0.621094 z m 5.410156,0 v -3.511718 h 0.81641 c 0.1289,0 0.23828,0.0039 0.33203,0.01172 0.0977,0.0039 0.17969,0.01563 0.24219,0.03125 0.0703,0.01172 0.1289,0.03516 0.1875,0.05859 0.0586,0.02344 0.11328,0.05469 0.16015,0.08984 0.0625,0.04687 0.11719,0.09766 0.16406,0.15625 0.0469,0.05859 0.0898,0.125 0.125,0.195312 0.0312,0.07031 0.0586,0.144532 0.0742,0.222657 0.0156,0.07813 0.0234,0.15625 0.0234,0.238281 0,0.101562 -0.0117,0.191406 -0.0352,0.277344 -0.0273,0.08594 -0.0625,0.164062 -0.11328,0.234375 -0.0469,0.06641 -0.10547,0.125 -0.17187,0.171875 l 0.0312,0.01953 c 0.0937,0.05078 0.17187,0.121094 0.23828,0.207031 0.0664,0.08203 0.11719,0.179688 0.14844,0.285156 0.0352,0.105469 0.0508,0.222657 0.0508,0.347657 0,0.07422 -0.008,0.144531 -0.0195,0.21875 -0.0156,0.07031 -0.0352,0.140625 -0.0625,0.210937 -0.0273,0.06641 -0.0625,0.132813 -0.0977,0.1875 -0.0391,0.0625 -0.0859,0.117188 -0.13281,0.164063 -0.0547,0.05469 -0.11719,0.101562 -0.1836,0.140625 -0.0664,0.03516 -0.14062,0.06641 -0.21875,0.08984 -0.0781,0.01953 -0.17968,0.03516 -0.30468,0.04687 -0.1211,0.0078 -0.26563,0.01563 -0.4375,0.01563 h -0.81627 z m 0.61328,-1.484374 v 1.023437 l 0.47656,-0.0039 c 0.0742,-0.0039 0.13282,-0.01172 0.17579,-0.01953 0.0391,-0.0078 0.0781,-0.01563 0.10546,-0.02734 0.0312,-0.01172 0.0547,-0.02734 0.0781,-0.04297 0.0273,-0.01563 0.0508,-0.03906 0.0703,-0.06641 0.0234,-0.02734 0.043,-0.0625 0.0586,-0.09766 0.0156,-0.03516 0.0312,-0.07422 0.0391,-0.113281 0.008,-0.04297 0.0117,-0.08594 0.0117,-0.132812 0,-0.05469 -0.008,-0.105469 -0.0156,-0.152344 -0.0117,-0.04297 -0.0234,-0.08594 -0.043,-0.121094 -0.0195,-0.03906 -0.043,-0.07031 -0.0703,-0.09766 -0.0273,-0.02734 -0.0625,-0.05078 -0.0977,-0.07422 l -0.0703,-0.03516 -0.0859,-0.01953 -0.125,-0.01563 c -0.16796,-0.0039 -0.33593,-0.0039 -0.50781,-0.0039 z m 0,-1.457032 v 0.921875 h 0.20313 c 0.14062,0 0.2539,-0.01172 0.34765,-0.03125 0.0859,-0.01563 0.15235,-0.04297 0.19922,-0.07422 0.043,-0.03125 0.0742,-0.07031 0.0977,-0.125 0.0195,-0.05469 0.0352,-0.125 0.0352,-0.210937 0,-0.183594 -0.043,-0.308594 -0.125,-0.375 -0.0391,-0.03125 -0.10546,-0.05859 -0.1914,-0.07422 -0.0937,-0.01953 -0.21485,-0.03125 -0.36328,-0.03125 z m 2.82031,2.941406 v -3.511718 h 0.6211 v 3.621094 h -0.6211 z m 3.75,-0.398437 c 0.0859,0 0.16797,-0.0078 0.25,-0.02344 0.082,-0.01953 0.16407,-0.04297 0.23829,-0.07422 0.0781,-0.03125 0.15234,-0.07031 0.21875,-0.121094 0.0703,-0.04297 0.13671,-0.101563 0.19921,-0.164063 0.0625,-0.0625 0.11719,-0.125 0.16407,-0.195312 0.0469,-0.07031 0.0859,-0.144531 0.11718,-0.222656 0.0312,-0.07422 0.0586,-0.15625 0.0742,-0.238282 0.0156,-0.08203 0.0234,-0.167968 0.0234,-0.257812 0,-0.08594 -0.008,-0.175781 -0.0273,-0.257812 -0.0117,-0.08203 -0.0391,-0.164063 -0.0703,-0.242188 -0.0312,-0.07813 -0.0703,-0.152344 -0.11718,-0.226562 -0.0469,-0.07031 -0.10157,-0.132813 -0.16407,-0.195313 -0.0625,-0.0625 -0.125,-0.117187 -0.19531,-0.160156 -0.0703,-0.05078 -0.14453,-0.08984 -0.21875,-0.121094 -0.0781,-0.03125 -0.15625,-0.05469 -0.23828,-0.07031 -0.082,-0.01562 -0.16797,-0.02344 -0.25391,-0.02344 -0.0898,0 -0.17578,0.0078 -0.25781,0.02344 -0.082,0.01563 -0.16406,0.03906 -0.23828,0.07031 -0.0781,0.03125 -0.15234,0.07422 -0.21875,0.117187 -0.0703,0.04688 -0.13281,0.101563 -0.19531,0.164063 -0.0586,0.0625 -0.11328,0.128906 -0.16016,0.199219 -0.0469,0.07031 -0.0898,0.144531 -0.12109,0.222656 -0.0312,0.07813 -0.0547,0.160156 -0.0703,0.246094 -0.0156,0.08203 -0.0234,0.167968 -0.0234,0.253906 0,0.08984 0.008,0.175781 0.0234,0.257812 0.0156,0.08203 0.0391,0.160157 0.0703,0.238282 0.0312,0.07422 0.0703,0.148437 0.11719,0.21875 0.0469,0.07031 0.10546,0.136718 0.16406,0.199218 0.0664,0.0625 0.13281,0.121094 0.19922,0.167969 0.0703,0.04687 0.14453,0.08594 0.21875,0.117188 0.0781,0.03125 0.15625,0.05469 0.23828,0.07422 0.082,0.01562 0.16797,0.02344 0.2539,0.02344 z m 1.92579,-1.296875 c 0,0.128906 -0.0117,0.253906 -0.0352,0.375 -0.0234,0.121094 -0.0625,0.242188 -0.10938,0.355469 -0.0469,0.117187 -0.10546,0.222656 -0.17578,0.324219 -0.0703,0.101562 -0.14843,0.195312 -0.24218,0.285156 -0.0898,0.08984 -0.1875,0.167968 -0.29297,0.234375 -0.10547,0.07031 -0.21875,0.128906 -0.33203,0.175781 -0.1211,0.04687 -0.24219,0.08594 -0.36329,0.109375 -0.125,0.02344 -0.25,0.03516 -0.375,0.03516 -0.1289,0 -0.2539,-0.01172 -0.375,-0.03516 -0.12109,-0.02344 -0.24218,-0.0625 -0.35937,-0.109375 -0.12109,-0.04687 -0.23047,-0.105469 -0.33203,-0.175781 -0.10547,-0.06641 -0.20313,-0.144531 -0.29688,-0.234375 -0.0898,-0.08984 -0.17187,-0.183594 -0.24218,-0.285156 -0.0664,-0.101563 -0.12891,-0.210938 -0.17579,-0.324219 -0.0508,-0.117188 -0.0859,-0.234375 -0.10937,-0.355469 -0.0234,-0.121094 -0.0352,-0.246094 -0.0352,-0.375 0,-0.257812 0.0469,-0.5 0.14453,-0.730469 0.0469,-0.113281 0.10938,-0.222656 0.17579,-0.328125 0.0703,-0.09766 0.15234,-0.195312 0.24218,-0.285156 0.0898,-0.08594 0.1875,-0.164062 0.29297,-0.230469 0.10547,-0.07031 0.21875,-0.128906 0.33594,-0.175781 0.11719,-0.04687 0.23828,-0.08203 0.35937,-0.105469 0.1211,-0.02344 0.2461,-0.03516 0.375,-0.03516 0.125,0 0.25391,0.01172 0.375,0.03516 0.1211,0.02344 0.24219,0.05859 0.36329,0.105469 0.11718,0.04687 0.23046,0.105469 0.33593,0.175781 0.10157,0.06641 0.20313,0.144531 0.28907,0.230469 0.0937,0.08984 0.17187,0.1875 0.24218,0.289062 0.0703,0.101563 0.12891,0.207032 0.17578,0.324219 0.0469,0.113281 0.0859,0.234375 0.10938,0.355469 0.0234,0.121094 0.0352,0.246094 0.0352,0.375 z m 1.199206,1.695312 v -3.511718 h 0.6211 v 3.015625 h 1.28515 v 0.605469 h -1.90625 z m 4.51954,-0.398437 c 0.0859,0 0.17187,-0.0078 0.2539,-0.02344 0.082,-0.01953 0.16016,-0.04297 0.23828,-0.07422 0.0742,-0.03125 0.14844,-0.07031 0.21875,-0.121094 0.0703,-0.04297 0.13672,-0.101563 0.19922,-0.164063 0.0625,-0.0625 0.11719,-0.125 0.16406,-0.195312 0.0469,-0.07031 0.0859,-0.144531 0.11719,-0.222656 0.0312,-0.07422 0.0547,-0.15625 0.0703,-0.238282 0.0156,-0.08203 0.0273,-0.167968 0.0273,-0.257812 0,-0.08594 -0.0117,-0.175781 -0.0273,-0.257812 -0.0156,-0.08203 -0.0391,-0.164063 -0.0703,-0.242188 -0.0312,-0.07813 -0.0742,-0.152344 -0.12109,-0.226562 -0.0469,-0.07031 -0.0977,-0.132813 -0.16016,-0.195313 -0.0625,-0.0625 -0.1289,-0.117187 -0.19922,-0.160156 -0.0703,-0.05078 -0.14062,-0.08984 -0.21875,-0.121094 -0.0742,-0.03125 -0.15625,-0.05469 -0.23437,-0.07031 -0.082,-0.01562 -0.17188,-0.02344 -0.25781,-0.02344 -0.0859,0 -0.17188,0.0078 -0.25391,0.02344 -0.082,0.01563 -0.16406,0.03906 -0.23828,0.07031 -0.0781,0.03125 -0.15235,0.07422 -0.21875,0.117187 -0.0703,0.04688 -0.13672,0.101563 -0.19531,0.164063 -0.0625,0.0625 -0.11719,0.128906 -0.16407,0.199219 -0.0469,0.07031 -0.0859,0.144531 -0.11718,0.222656 -0.0312,0.07813 -0.0547,0.160156 -0.0703,0.246094 -0.0156,0.08203 -0.0234,0.167968 -0.0234,0.253906 0,0.08984 0.004,0.175781 0.0195,0.257812 0.0195,0.08203 0.043,0.160157 0.0742,0.238282 0.0312,0.07422 0.0703,0.148437 0.11718,0.21875 0.0469,0.07031 0.10157,0.136718 0.16407,0.199218 0.0625,0.0625 0.1289,0.121094 0.19921,0.167969 0.0703,0.04687 0.14454,0.08594 0.21875,0.117188 0.0742,0.03125 0.15625,0.05469 0.23829,0.07422 0.082,0.01562 0.16406,0.02344 0.25,0.02344 z m 1.92968,-1.296875 c 0,0.128906 -0.0156,0.253906 -0.0391,0.375 -0.0234,0.121094 -0.0586,0.242188 -0.10547,0.355469 -0.0508,0.117187 -0.10547,0.222656 -0.17578,0.324219 -0.0703,0.101562 -0.15234,0.195312 -0.24219,0.285156 -0.0898,0.08984 -0.1875,0.167968 -0.29297,0.234375 -0.10546,0.07031 -0.21875,0.128906 -0.33593,0.175781 -0.11719,0.04687 -0.23828,0.08594 -0.36328,0.109375 -0.1211,0.02344 -0.2461,0.03516 -0.375,0.03516 -0.125,0 -0.25,-0.01172 -0.3711,-0.03516 -0.125,-0.02344 -0.24219,-0.0625 -0.35937,-0.109375 -0.1211,-0.04687 -0.23047,-0.105469 -0.33594,-0.175781 -0.10156,-0.06641 -0.20313,-0.144531 -0.29297,-0.234375 -0.0898,-0.08984 -0.17187,-0.183594 -0.24219,-0.285156 -0.0703,-0.101563 -0.1289,-0.210938 -0.17578,-0.324219 -0.0508,-0.117188 -0.0859,-0.234375 -0.10937,-0.355469 -0.0273,-0.121094 -0.0391,-0.246094 -0.0391,-0.375 0,-0.257812 0.0508,-0.5 0.14454,-0.730469 0.0508,-0.113281 0.10937,-0.222656 0.17968,-0.328125 0.0703,-0.09766 0.15235,-0.195312 0.24219,-0.285156 0.0898,-0.08594 0.1875,-0.164062 0.29297,-0.230469 0.10547,-0.07031 0.21484,-0.128906 0.33203,-0.175781 0.12109,-0.04687 0.24219,-0.08203 0.36328,-0.105469 0.1211,-0.02344 0.2461,-0.03516 0.3711,-0.03516 0.1289,0 0.25781,0.01172 0.3789,0.03516 0.1211,0.02344 0.24219,0.05859 0.35938,0.105469 0.12109,0.04687 0.23047,0.105469 0.33593,0.175781 0.10547,0.06641 0.20313,0.144531 0.29297,0.230469 0.0898,0.08984 0.17188,0.1875 0.24219,0.289062 0.0703,0.101563 0.125,0.207032 0.17578,0.324219 0.0469,0.113281 0.082,0.234375 0.10547,0.355469 0.0234,0.121094 0.0391,0.246094 0.0391,0.375 z m 3.17578,-0.167969 h 1.51172 v 0.222657 c 0,0.277343 -0.043,0.53125 -0.12109,0.753906 -0.082,0.226562 -0.20313,0.421875 -0.36328,0.589844 -0.16406,0.164062 -0.35938,0.289062 -0.58203,0.371093 -0.21875,0.08203 -0.46485,0.125 -0.74219,0.125 -0.082,0 -0.16406,-0.0039 -0.24609,-0.01563 -0.082,-0.0078 -0.16016,-0.01953 -0.23438,-0.03906 -0.0742,-0.01563 -0.14844,-0.03906 -0.22266,-0.06641 -0.0703,-0.02734 -0.13671,-0.05859 -0.20312,-0.09375 -0.15234,-0.07813 -0.28125,-0.175782 -0.39453,-0.289063 -0.11719,-0.113281 -0.21485,-0.242187 -0.29688,-0.386719 -0.0781,-0.144531 -0.14062,-0.296875 -0.17968,-0.460937 -0.043,-0.160157 -0.0625,-0.332031 -0.0625,-0.515625 0,-0.292969 0.0508,-0.5625 0.14453,-0.804688 0.0469,-0.121094 0.10937,-0.238281 0.18359,-0.34375 0.0703,-0.109375 0.15625,-0.207031 0.25391,-0.296875 0.082,-0.07813 0.16797,-0.148437 0.26562,-0.207031 0.0937,-0.05859 0.19922,-0.109375 0.30469,-0.148438 0.10937,-0.03906 0.22266,-0.06641 0.33984,-0.08984 0.1211,-0.01953 0.24219,-0.02734 0.3711,-0.02734 0.16797,0 0.33203,0.01563 0.48047,0.04687 0.14843,0.03125 0.28906,0.07813 0.41796,0.140625 0.12891,0.06641 0.25,0.144531 0.35547,0.242187 0.10547,0.09375 0.19922,0.207032 0.28516,0.332032 l 0.0547,0.08203 -0.51563,0.410156 -0.0625,-0.105469 c -0.0547,-0.09375 -0.12109,-0.179687 -0.1914,-0.25 -0.0664,-0.07031 -0.14454,-0.128906 -0.22657,-0.175781 -0.082,-0.04687 -0.17187,-0.08203 -0.26953,-0.105469 -0.0937,-0.02344 -0.19922,-0.03516 -0.3125,-0.03516 -0.36328,0 -0.66015,0.121094 -0.88281,0.367188 -0.11328,0.121094 -0.19922,0.261718 -0.25391,0.421875 -0.0586,0.164062 -0.0859,0.347656 -0.0859,0.546875 0,0.191406 0.0273,0.363281 0.0859,0.519531 0.0586,0.152344 0.14453,0.289063 0.25782,0.40625 0.11328,0.121094 0.24218,0.207031 0.39062,0.269531 0.14453,0.05859 0.30859,0.08984 0.48828,0.08984 0.15625,0 0.30078,-0.02344 0.42969,-0.07031 0.12891,-0.04688 0.24609,-0.117188 0.34766,-0.214844 0.10156,-0.08984 0.18359,-0.199219 0.23828,-0.320313 0.043,-0.08984 0.0742,-0.191406 0.0898,-0.296875 h -0.95703 v -0.578125 z m 2.65235,1.863281 v -3.511718 h 0.62109 v 3.621094 h -0.62109 z m 4.76953,-2.515624 c -0.0781,-0.08203 -0.15625,-0.15625 -0.23828,-0.21875 -0.082,-0.05859 -0.16406,-0.109376 -0.25,-0.148438 -0.082,-0.03906 -0.17188,-0.06641 -0.26563,-0.08594 -0.0937,-0.01953 -0.19531,-0.03125 -0.29687,-0.03125 -0.16797,0 -0.32813,0.03516 -0.48438,0.101563 -0.082,0.03516 -0.15625,0.07422 -0.22265,0.121094 -0.0664,0.04687 -0.13282,0.101562 -0.1875,0.160156 -0.0625,0.0625 -0.11328,0.128906 -0.16016,0.199219 -0.043,0.06641 -0.0781,0.140625 -0.10937,0.214844 -0.0312,0.07812 -0.0508,0.15625 -0.0664,0.242187 -0.0156,0.08594 -0.0234,0.175781 -0.0234,0.273437 0,0.07422 0.004,0.144532 0.0117,0.214844 0.008,0.06641 0.0234,0.128906 0.043,0.191406 0.0156,0.05859 0.0391,0.117188 0.0664,0.171876 0.0234,0.05859 0.0547,0.109374 0.0898,0.164062 0.0625,0.08984 0.13672,0.167969 0.21094,0.238281 0.0781,0.06641 0.16406,0.125 0.2539,0.171875 0.0898,0.05078 0.1875,0.08594 0.28516,0.109375 0.0977,0.02344 0.20312,0.03516 0.30859,0.03516 0.10157,0 0.19922,-0.0078 0.29297,-0.03125 0.0898,-0.01953 0.17969,-0.05078 0.26563,-0.08984 0.0859,-0.04297 0.16797,-0.09375 0.24609,-0.15625 0.0781,-0.0625 0.15625,-0.136719 0.22656,-0.21875 l 0.19141,-0.226563 v 0.886714 l -0.0469,0.03125 c -0.0859,0.06641 -0.17968,0.121094 -0.27343,0.171875 -0.0977,0.05078 -0.19922,0.08984 -0.30078,0.125 -0.10157,0.03125 -0.20313,0.05469 -0.3125,0.07031 -0.10547,0.01953 -0.21485,0.02734 -0.32422,0.02734 -0.0937,0 -0.1875,-0.0078 -0.28125,-0.02344 -0.0898,-0.01172 -0.1836,-0.03516 -0.27344,-0.0625 -0.0937,-0.02734 -0.17969,-0.0625 -0.26172,-0.105469 -0.0859,-0.03906 -0.16797,-0.08984 -0.24609,-0.140625 -0.13282,-0.08984 -0.2461,-0.195312 -0.34766,-0.304688 -0.10156,-0.113281 -0.1875,-0.238281 -0.25781,-0.371093 -0.0664,-0.132813 -0.1211,-0.273438 -0.15625,-0.417969 -0.0352,-0.144531 -0.0508,-0.296875 -0.0508,-0.457031 0,-0.136719 0.0117,-0.269531 0.0352,-0.394531 0.0234,-0.125 0.0586,-0.246094 0.10547,-0.359376 0.043,-0.117187 0.10547,-0.226562 0.17578,-0.328124 0.0703,-0.105469 0.15235,-0.203126 0.25,-0.296876 0.0898,-0.08594 0.1875,-0.164062 0.28907,-0.230468 0.10156,-0.06641 0.21093,-0.121094 0.32031,-0.164063 0.11328,-0.04687 0.23047,-0.07813 0.35156,-0.101562 0.12109,-0.01953 0.25,-0.03125 0.37891,-0.03125 0.10156,0 0.20703,0.0078 0.30859,0.02344 0.10156,0.01563 0.19922,0.03906 0.29688,0.07031 0.0977,0.03125 0.19531,0.07031 0.28906,0.121093 0.0977,0.04688 0.1914,0.105469 0.28515,0.167969 l 0.0469,0.03516 V 17.2539 Z m 2.59765,0.175781 -0.375,0.859375 h 0.75 z m 0.0977,-1.195313 1.61328,3.644532 h -0.67578 l -0.4375,-1.03125 h -1.1875 l -0.44141,1.03125 h -0.67578 l 1.70703,-3.867188 z m 2.44531,3.535156 v -3.511718 h 0.6211 v 3.015625 h 1.28515 v 0.605469 h -1.90625 z m 9.60938,0 v -3.511718 h 2.01172 v 0.589844 h -1.39063 v 0.757812 h 1.39063 v 0.59375 h -1.39063 v 1.085938 h 1.39063 v 0.59375 h -2.01172 z m 3.82812,0 v -2.90625 h -0.96093 v -0.605468 h 2.54296 v 0.605468 h -0.95703 v 3.015626 h -0.625 z m 2.23828,-3.511718 h 0.51172 l 0.78516,2.136718 0.89844,-2.351562 0.91015,2.351562 0.78907,-2.136718 h 0.66796 l -1.47656,3.824218 -0.88281,-2.472656 -0.88281,2.472656 -1.47657,-3.824218 z m 7.19922,3.113281 c 0.0859,0 0.16797,-0.0078 0.25,-0.02344 0.082,-0.01953 0.16407,-0.04297 0.23828,-0.07422 0.0781,-0.03125 0.15235,-0.07031 0.21875,-0.121094 0.0703,-0.04297 0.13672,-0.101563 0.19922,-0.164063 0.0625,-0.0625 0.11719,-0.125 0.16407,-0.195312 0.0469,-0.07031 0.0859,-0.144531 0.12109,-0.222656 0.0312,-0.07422 0.0547,-0.15625 0.0703,-0.238282 0.0156,-0.08203 0.0234,-0.167968 0.0234,-0.257812 0,-0.08594 -0.008,-0.175781 -0.0234,-0.257812 -0.0156,-0.08203 -0.043,-0.164063 -0.0742,-0.242188 -0.0312,-0.07813 -0.0703,-0.152344 -0.11718,-0.226562 -0.0469,-0.07031 -0.10157,-0.132813 -0.16016,-0.195313 -0.0625,-0.0625 -0.12891,-0.117187 -0.19922,-0.160156 -0.0703,-0.05078 -0.14453,-0.08984 -0.21875,-0.121094 -0.0781,-0.03125 -0.15625,-0.05469 -0.23828,-0.07031 -0.082,-0.01562 -0.16797,-0.02344 -0.25391,-0.02344 -0.0898,0 -0.17578,0.0078 -0.25781,0.02344 -0.082,0.01563 -0.16016,0.03906 -0.23828,0.07031 -0.0781,0.03125 -0.14844,0.07422 -0.21875,0.117187 -0.0664,0.04688 -0.13281,0.101563 -0.19141,0.164063 -0.0625,0.0625 -0.11718,0.128906 -0.16406,0.199219 -0.0469,0.07031 -0.0859,0.144531 -0.11719,0.222656 -0.0352,0.07813 -0.0586,0.160156 -0.0742,0.246094 -0.0156,0.08203 -0.0234,0.167968 -0.0234,0.253906 0,0.08984 0.008,0.175781 0.0234,0.257812 0.0156,0.08203 0.0391,0.160157 0.0703,0.238282 0.0312,0.07422 0.0742,0.148437 0.12109,0.21875 0.0469,0.07031 0.10156,0.136718 0.16406,0.199218 0.0625,0.0625 0.12891,0.121094 0.19922,0.167969 0.0703,0.04687 0.14063,0.08594 0.21875,0.117188 0.0742,0.03125 0.15235,0.05469 0.23438,0.07422 0.082,0.01562 0.16797,0.02344 0.2539,0.02344 z m 1.92578,-1.296875 c 0,0.128906 -0.0117,0.253906 -0.0352,0.375 -0.0234,0.121094 -0.0586,0.242188 -0.10938,0.355469 -0.0469,0.117187 -0.10547,0.222656 -0.17578,0.324219 -0.0664,0.101562 -0.14844,0.195312 -0.23828,0.285156 -0.0937,0.08984 -0.19141,0.167968 -0.29687,0.234375 -0.10547,0.07031 -0.21485,0.128906 -0.33204,0.175781 -0.12109,0.04687 -0.24218,0.08594 -0.36328,0.109375 -0.125,0.02344 -0.25,0.03516 -0.375,0.03516 -0.125,0 -0.2539,-0.01172 -0.375,-0.03516 -0.12109,-0.02344 -0.24218,-0.0625 -0.35937,-0.109375 -0.11719,-0.04687 -0.23047,-0.105469 -0.33203,-0.175781 -0.10547,-0.06641 -0.20313,-0.144531 -0.29297,-0.234375 -0.0937,-0.08984 -0.17578,-0.183594 -0.24219,-0.285156 -0.0703,-0.101563 -0.13281,-0.210938 -0.17969,-0.324219 -0.0508,-0.117188 -0.0859,-0.234375 -0.10937,-0.355469 -0.0234,-0.121094 -0.0352,-0.246094 -0.0352,-0.375 0,-0.257812 0.0469,-0.5 0.14453,-0.730469 0.0508,-0.113281 0.10938,-0.222656 0.17969,-0.328125 0.0703,-0.09766 0.14844,-0.195312 0.24219,-0.285156 0.0898,-0.08594 0.1875,-0.164062 0.28906,-0.230469 0.10547,-0.07031 0.21875,-0.128906 0.33594,-0.175781 0.11719,-0.04687 0.23828,-0.08203 0.35937,-0.105469 0.1211,-0.02344 0.25,-0.03516 0.375,-0.03516 0.12891,0 0.25391,0.01172 0.375,0.03516 0.125,0.02344 0.2461,0.05859 0.36328,0.105469 0.11719,0.04687 0.23047,0.105469 0.33594,0.175781 0.10547,0.06641 0.20313,0.144531 0.29297,0.230469 0.0898,0.08984 0.17188,0.1875 0.23828,0.289062 0.0703,0.101563 0.12891,0.207032 0.17578,0.324219 0.0508,0.113281 0.0859,0.234375 0.10938,0.355469 0.0234,0.121094 0.0352,0.246094 0.0352,0.375 z m 1.19922,1.695312 v -3.511718 h 0.90625 c 0.11719,0 0.21875,0.0039 0.30469,0.01172 0.0898,0.0039 0.16406,0.01563 0.22266,0.03125 0.0586,0.01563 0.11718,0.03516 0.17187,0.05859 0.0508,0.02734 0.10156,0.05469 0.14844,0.08984 0.0586,0.04687 0.11328,0.101562 0.15625,0.164062 0.043,0.05859 0.082,0.125 0.11328,0.199219 0.0312,0.07422 0.0547,0.152344 0.0703,0.230469 0.0156,0.08203 0.0195,0.164062 0.0195,0.25 0,0.152344 -0.0195,0.289062 -0.0625,0.40625 -0.0469,0.125 -0.11328,0.226562 -0.20312,0.308594 -0.0898,0.08594 -0.19922,0.148437 -0.32813,0.1875 -0.0859,0.02734 -0.17968,0.04687 -0.28125,0.05469 l 1.30079,1.628907 h -0.78907 l -1.13672,-1.488282 v 1.488282 h -0.61328 z m 0.61328,-2.949218 v 0.917968 h 0.19922 c 0.15235,0 0.27735,-0.0078 0.375,-0.02734 0.0898,-0.01563 0.15625,-0.04297 0.19532,-0.07031 0.0352,-0.03125 0.0625,-0.07031 0.082,-0.121094 0.0234,-0.05859 0.0352,-0.132812 0.0352,-0.21875 0,-0.09766 -0.0117,-0.179687 -0.0352,-0.242187 -0.0195,-0.05859 -0.0508,-0.101563 -0.0898,-0.132813 -0.0898,-0.07031 -0.27734,-0.105468 -0.5625,-0.105468 z m 2.6875,2.949218 v -3.511718 h 0.61719 v 1.351562 l 1.27344,-1.351562 h 0.78125 l -1.56641,1.644531 1.69141,1.976563 h -0.80859 l -1.3711,-1.640626 v 1.640626 h -0.61719 z m 4.95309,-1.988281 c 0.11719,0.05078 0.22266,0.109375 0.3125,0.179688 0.0937,0.06641 0.17187,0.144531 0.23437,0.234375 0.0625,0.08594 0.10938,0.183594 0.14063,0.285156 0.0312,0.105469 0.0469,0.214844 0.0469,0.332031 0,0.167969 -0.0273,0.324219 -0.082,0.460938 -0.0547,0.140625 -0.13672,0.265625 -0.25,0.371093 -0.10937,0.109376 -0.23828,0.1875 -0.38281,0.242188 -0.14844,0.05078 -0.30469,0.07813 -0.48437,0.07813 -0.14063,0 -0.27735,-0.01953 -0.39844,-0.05859 -0.125,-0.03516 -0.23828,-0.09375 -0.33985,-0.167969 -0.10156,-0.07812 -0.1875,-0.171874 -0.2539,-0.28125 -0.0664,-0.105468 -0.11719,-0.230468 -0.15235,-0.363281 l -0.0234,-0.08594 0.57031,-0.28125 0.0312,0.132812 c 0.0234,0.09375 0.0508,0.175782 0.0898,0.246094 0.0352,0.06641 0.0742,0.125 0.125,0.167969 0.043,0.04297 0.0977,0.07813 0.15625,0.09766 0.0586,0.02344 0.125,0.03125 0.19532,0.03125 0.0898,0 0.16796,-0.01172 0.23828,-0.03516 0.0703,-0.02344 0.1289,-0.0625 0.18359,-0.109375 0.0508,-0.04687 0.0898,-0.101563 0.11328,-0.164063 0.0273,-0.0625 0.0391,-0.132812 0.0391,-0.214843 0,-0.0625 -0.008,-0.125 -0.0273,-0.175782 -0.0195,-0.05469 -0.0469,-0.105468 -0.082,-0.152344 -0.0352,-0.04687 -0.0859,-0.09375 -0.14063,-0.132812 -0.0586,-0.04297 -0.1289,-0.08203 -0.21093,-0.117188 l -0.41407,-0.179687 c -0.12109,-0.04687 -0.22656,-0.109375 -0.3164,-0.171875 -0.0937,-0.06641 -0.17188,-0.144531 -0.23438,-0.226562 -0.0625,-0.08203 -0.10937,-0.175782 -0.14062,-0.277344 -0.0312,-0.101563 -0.0469,-0.207032 -0.0469,-0.320313 0,-0.136719 0.0273,-0.261719 0.0781,-0.375 0.0508,-0.117187 0.1289,-0.21875 0.23047,-0.308593 0.0977,-0.08594 0.21484,-0.152344 0.33984,-0.199219 0.12891,-0.04297 0.26563,-0.0625 0.41797,-0.0625 0.10937,0 0.21484,0.01172 0.3125,0.03516 0.0977,0.02344 0.19141,0.05859 0.27344,0.109375 0.082,0.04687 0.16015,0.109375 0.22265,0.179688 0.0664,0.07031 0.1211,0.15625 0.16797,0.25 l 0.043,0.08594 -0.51172,0.328125 -0.0547,-0.09766 c -0.0352,-0.05859 -0.0703,-0.113282 -0.10937,-0.15625 -0.0352,-0.03906 -0.0742,-0.07422 -0.11328,-0.101563 -0.0391,-0.02734 -0.0781,-0.04687 -0.1211,-0.05859 -0.043,-0.01563 -0.0898,-0.01953 -0.14062,-0.01953 -0.0625,0 -0.12109,0.0078 -0.16797,0.02734 -0.0469,0.01563 -0.0937,0.04297 -0.12891,0.08203 -0.0391,0.03516 -0.0664,0.07422 -0.0859,0.121094 -0.0156,0.04297 -0.0273,0.09766 -0.0273,0.15625 0,0.09375 0.0312,0.175781 0.0859,0.242187 0.0312,0.03516 0.0703,0.07031 0.12109,0.105469 0.0508,0.03516 0.11329,0.06641 0.1875,0.09766 z m -29.08594,1.988281 v -3.699218 l 2.49219,2.539062 v -2.351562 h 0.60156 v 3.777344 l -2.48828,-2.488282 v 2.332032 h -0.60547 v -0.109376"
     id="path17" />
</svg>
